<svg xmlns="http://www.w3.org/2000/svg" width="9.999" height="13.998" viewBox="0 0 9.999 13.998">
  <g id="ico_station" transform="translate(-96 -32)">
    <path id="パス_367" data-name="パス 367" d="M101,46a1.008,1.008,0,0,1-.157-.012.986.986,0,0,1-.647-.394c-1.263-1.707-4.2-5.978-4.2-8.811a5,5,0,0,1,10,0c0,2.835-2.935,7.1-4.2,8.811A.994.994,0,0,1,101,46Zm0-13a3.9,3.9,0,0,0-4,3.781,10.416,10.416,0,0,0,1.575,4.477A35.616,35.616,0,0,0,101,44.993a35.64,35.64,0,0,0,2.424-3.735A10.414,10.414,0,0,0,105,36.781,3.9,3.9,0,0,0,101,33Z" fill="#6c6c75"/>
    <path id="パス_368" data-name="パス 368" d="M194,132a2,2,0,1,1,2-2A2,2,0,0,1,194,132Zm0-3a1,1,0,1,0,1,1A1,1,0,0,0,194,129Z" transform="translate(-93 -93)" fill="#6c6c75"/>
  </g>
</svg>
