<svg xmlns="http://www.w3.org/2000/svg" width="13.999" height="13.999" viewBox="0 0 13.999 13.999">
  <g id="ico_close" transform="translate(-48 -48)">
    <path id="パス_360" data-name="パス 360" d="M55,62a7,7,0,1,1,7-7A7.007,7.007,0,0,1,55,62Zm0-12.922A5.923,5.923,0,1,0,60.922,55,5.929,5.929,0,0,0,55,49.077Z" fill="#707070"/>
    <g id="グループ_1074" data-name="グループ 1074" transform="translate(50.189 49.947)">
      <path id="パス_361" data-name="パス 361" d="M115.4,114.116a10.546,10.546,0,0,0,.05,1.171h-1.211a10.1,10.1,0,0,0,.061-1.181v-2.837c0-.5,0-.717.02-1.131a6.617,6.617,0,0,1-.818,1.121,6.034,6.034,0,0,0-.454-1.232,8,8,0,0,0,1.575-2.362,7.159,7.159,0,0,0,.586-1.8l1.151.343c-.121.3-.172.424-.283.727a13.931,13.931,0,0,1-.676,1.646v4.281a9.544,9.544,0,0,0,2.726-3.826h-1.151a9.6,9.6,0,0,0-1.09.061v-1.171c.3.03.7.05,1.09.05h1.494v-.949a6.3,6.3,0,0,0-.071-.979h1.211a6.074,6.074,0,0,0-.061.979v.949h1.878a9.859,9.859,0,0,0,1.141-.061V109.1a9.321,9.321,0,0,0-1.111-.061h-1.585a8.15,8.15,0,0,0,1.151,2.019,9.927,9.927,0,0,0,1.807,1.817,5.23,5.23,0,0,0-.747,1.09,9.174,9.174,0,0,1-1.252-1.333,8.819,8.819,0,0,1-1.323-2.3c.02.323.03.6.03,1.02v2.817a7.478,7.478,0,0,0,.061,1.131h-1.211a9.968,9.968,0,0,0,.071-1.121v-2.685c0-.333.01-.727.02-1.06a9.058,9.058,0,0,1-2.423,3.523,3.37,3.37,0,0,0-.656-.919Z" transform="translate(-113.048 -105.868)" fill="#707070"/>
    </g>
  </g>
</svg>
