<svg xmlns="http://www.w3.org/2000/svg" width="14.003" height="14.002" viewBox="0 0 14.003 14.002">
  <g id="グループ_1076" data-name="グループ 1076" transform="translate(-16.037 -16)">
    <path id="パス_362" data-name="パス 362" d="M33.969,45.278a1.55,1.55,0,0,1-1.1-.454l0,0L30.241,42.15a1.392,1.392,0,0,1-.4-.981v-.162a.47.47,0,0,0-.134-.328l-.332-.307a.464.464,0,0,0-.435-.108,1.89,1.89,0,0,1-1.806-.49l-2.492-2.493a5.4,5.4,0,0,1-1.656-3.619,2.453,2.453,0,0,1,.678-1.787.467.467,0,0,1,.659,0L35.068,42.626a1.553,1.553,0,0,1-1.1,2.653Zm-.438-1.113a.621.621,0,0,0,.877-.879L24.054,32.932a1.89,1.89,0,0,0-.138.733A4.51,4.51,0,0,0,25.3,36.621l2.492,2.493a.952.952,0,0,0,.91.247,1.394,1.394,0,0,1,1.3.326l.339.313.011.011a1.409,1.409,0,0,1,.417,1v.161a.464.464,0,0,0,.134.327Z" transform="translate(-6.743 -15.281)" fill="#707070"/>
    <path id="パス_363" data-name="パス 363" d="M272.467,21.6a.467.467,0,0,1-.33-.8l.33-.33v-.434a2.319,2.319,0,0,1,.684-1.651l2.254-2.254a.467.467,0,1,1,.66.66l-2.254,2.254a1.391,1.391,0,0,0-.41.99v.434a.927.927,0,0,1-.274.66l-.33.33A.465.465,0,0,1,272.467,21.6Z" transform="translate(-248.496)" fill="#707070"/>
    <path id="パス_364" data-name="パス 364" d="M304.467,100.2a.467.467,0,0,1-.33-.8l.33-.33a.927.927,0,0,1,.66-.274h.434a1.391,1.391,0,0,0,.99-.41l2.254-2.254a.467.467,0,0,1,.66.66l-2.254,2.254a2.319,2.319,0,0,1-1.65.684h-.434l-.33.33A.465.465,0,0,1,304.467,100.2Z" transform="translate(-279.562 -77.666)" fill="#707070"/>
    <path id="パス_365" data-name="パス 365" d="M344.466,59.268a.467.467,0,0,1-.33-.8l2.334-2.334a.467.467,0,0,1,.66.66L344.8,59.131A.465.465,0,0,1,344.466,59.268Z" transform="translate(-318.395 -38.833)" fill="#707070"/>
    <path id="パス_366" data-name="パス 366" d="M17.669,317.368a1.633,1.633,0,0,1-1.155-2.788l2.46-2.444a.467.467,0,1,1,.658.662l-2.459,2.442a.7.7,0,0,0,.991.989l2.908-2.925a.467.467,0,1,1,.662.658l-2.909,2.926A1.631,1.631,0,0,1,17.669,317.368Z" transform="translate(0 -287.365)" fill="#707070"/>
  </g>
</svg>
